<?xml version="1.0" encoding="UTF-8" standalone="no"?>
<svg
   viewBox="0 0 270 230"
   width="270"
   height="230"
   version="1.1"
   id="svg10"
   sodipodi:docname="ddphotos-logo-v2.svg"
   inkscape:version="1.4.3 (0d15f750, 2025-12-25)"
   xmlns:inkscape="http://www.inkscape.org/namespaces/inkscape"
   xmlns:sodipodi="http://sodipodi.sourceforge.net/DTD/sodipodi-0.dtd"
   xmlns="http://www.w3.org/2000/svg"
   xmlns:svg="http://www.w3.org/2000/svg">
  <defs
     id="defs10" />
  <sodipodi:namedview
     id="namedview10"
     pagecolor="#ffffff"
     bordercolor="#000000"
     borderopacity="0.25"
     inkscape:showpageshadow="2"
     inkscape:pageopacity="0.0"
     inkscape:pagecheckerboard="0"
     inkscape:deskcolor="#d1d1d1"
     inkscape:zoom="2.5578819"
     inkscape:cx="133.89985"
     inkscape:cy="114.93885"
     inkscape:window-width="1434"
     inkscape:window-height="791"
     inkscape:window-x="0"
     inkscape:window-y="31"
     inkscape:window-maximized="0"
     inkscape:current-layer="svg10" />
  <title
     id="title1">DD Photos</title>
  <desc
     id="desc1">DD Photos logo — SLR camera with DD lens monogram and PHOTOS wordmark</desc>
  <!-- Camera body: y=22, height=162, bottom=184 -->
  <rect
     x="0"
     y="22"
     width="270"
     height="162"
     rx="14"
     fill="#3730A3"
     id="rect1" />
  <!-- Viewfinder bump -->
  <rect
     x="50"
     y="0"
     width="88"
     height="26"
     rx="7"
     fill="#4338CA"
     id="rect2" />
  <!-- Body panel line -->
  <line
     x1="0"
     y1="50"
     x2="270"
     y2="50"
     stroke="#2E2780"
     stroke-width="1"
     opacity="0.4"
     id="line2" />
  <!-- Indicator lights -->
  <circle
     cx="17"
     cy="37"
     r="3.5"
     fill="#7C72F0"
     opacity="0.8"
     id="circle2" />
  <circle
     cx="28"
     cy="37"
     r="2.5"
     fill="#A5B4FC"
     opacity="0.5"
     id="circle3" />
  <!--
    Lens centered in full camera body height:
    body top=22, bottom=184, center=103
    R=71: top=32 (10px gap), bottom=174 (10px gap)
  -->
  <circle
     fill="#1a186b"
     stroke="#6d68d8"
     stroke-width="3"
     id="circle4"
     r="71"
     cy="105"
     cx="135" />
  <circle
     fill="none"
     stroke="#4f4ab5"
     stroke-width="1.5"
     id="circle5"
     r="61"
     cy="105"
     cx="135" />
  <circle
     cx="135"
     cy="105"
     r="52"
     fill="#0f0e55"
     id="circle6" />
  <!-- Aperture lines -->
  <line
     x1="135"
     y1="53"
     x2="135"
     y2="157"
     stroke="#4f4ab5"
     stroke-width="0.4"
     opacity="0.15"
     id="line6" />
  <line
     x1="84"
     y1="105"
     x2="186"
     y2="105"
     stroke="#4f4ab5"
     stroke-width="0.4"
     opacity="0.15"
     id="line7" />
  <!-- Lens glint -->
  <!--
    DD monogram: outer R=55, inner R=36, centered at 135,103
    top=48, bottom=158, inner top=67, inner bottom=139
    flat bar=5px, gap=2px (1px each side of x=135)
  -->
  <!-- LEFT reversed D -->
  <path
     d="m 134,50 a 55,55 0 0 0 0,110 z"
     fill="#a5b4fc"
     id="path7" />
  <path
     d="m 134,69 a 36,36 0 0 0 0,72 z"
     fill="#0f0e55"
     id="path8" />
  <rect
     x="129"
     y="50"
     width="5"
     height="110"
     fill="#a5b4fc"
     id="rect8" />
  <!-- RIGHT normal D -->
  <path
     d="m 136,50 a 55,55 0 0 1 0,110 z"
     fill="#c7d2fe"
     id="path9" />
  <path
     d="m 136,69 a 36,36 0 0 1 0,72 z"
     fill="#0f0e55"
     id="path10" />
  <rect
     x="136"
     y="50"
     width="5"
     height="110"
     fill="#c7d2fe"
     id="rect10" />
  <!--
    PHOTOS wordmark
    Camera bottom = 184. Gap = 20px. Baseline at 184 + 20 + ~18 (cap height) = 222.
    viewBox height = 230 gives 8px below baseline.
  -->
  <text
     x="135"
     y="218"
     text-anchor="middle"
     textLength="220"
     lengthAdjust="spacing"
     font-family="'Helvetica Neue', Helvetica, Arial, sans-serif"
     font-size="26px"
     font-weight="500"
     fill="#7c72f0"
     id="text10"
     transform="translate(10.651007,-1.5637938)">PHOTOS</text>
  <circle
     fill="#1a186b"
     stroke="#6d68d8"
     stroke-width="3"
     id="circle11"
     r="71"
     cy="105"
     cx="135" />
  <circle
     fill="none"
     stroke="#4f4ab5"
     stroke-width="1.5"
     id="circle12"
     r="61"
     cy="105"
     cx="135" />
  <circle
     cx="135"
     cy="105"
     r="52"
     fill="#0f0e55"
     id="circle13" />
  <line
     x1="135"
     y1="53"
     x2="135"
     y2="157"
     stroke="#4f4ab5"
     stroke-width="0.4"
     opacity="0.15"
     id="line13" />
  <line
     x1="84"
     y1="105"
     x2="186"
     y2="105"
     stroke="#4f4ab5"
     stroke-width="0.4"
     opacity="0.15"
     id="line14" />
  <path
     d="m 134,50 a 55,55 0 0 0 0,110 z"
     fill="#a5b4fc"
     id="path14" />
  <path
     d="m 134,69 a 36,36 0 0 0 0,72 z"
     fill="#0f0e55"
     id="path15" />
  <rect
     x="129"
     y="50"
     width="5"
     height="110"
     fill="#a5b4fc"
     id="rect15" />
  <path
     d="m 136,50 a 55,55 0 0 1 0,110 z"
     fill="#c7d2fe"
     id="path16" />
  <path
     d="m 136,69 a 36,36 0 0 1 0,72 z"
     fill="#0f0e55"
     id="path17" />
  <rect
     x="136"
     y="50"
     width="5"
     height="110"
     fill="#c7d2fe"
     id="rect17" />
</svg>
